<svg id="visual" viewBox="0 0 900 600" width="900" height="600" xmlns="http://www.w3.org/2000/svg" xmlns:xlink="http://www.w3.org/1999/xlink" version="1.1"><rect x="0" y="0" width="900" height="600" fill="#ebebeb"></rect><defs><linearGradient id="grad1_0" x1="33.3%" y1="0%" x2="100%" y2="100%"><stop offset="20%" stop-color="#ebebeb" stop-opacity="1"></stop><stop offset="80%" stop-color="#ebebeb" stop-opacity="1"></stop></linearGradient></defs><defs><linearGradient id="grad2_0" x1="0%" y1="0%" x2="66.7%" y2="100%"><stop offset="20%" stop-color="#ebebeb" stop-opacity="1"></stop><stop offset="80%" stop-color="#ebebeb" stop-opacity="1"></stop></linearGradient></defs><g transform="translate(900, 0)"><path d="M0 486.7C-59.9 473.4 -119.9 460.1 -182.2 439.8C-244.4 419.4 -309.1 392 -344.2 344.2C-379.3 296.3 -384.9 228 -403.7 167.2C-422.6 106.5 -454.7 53.2 -486.7 0L0 0Z" fill="#4690ff"></path></g><g transform="translate(0, 600)"><path d="M0 -486.7C66.6 -484.1 133.1 -481.4 186.3 -449.7C239.4 -418 279.2 -357.4 302.6 -302.6C326.1 -247.9 333.3 -199.1 361.2 -149.6C389.2 -100.2 438 -50.1 486.7 0L0 0Z" fill="#4690ff"></path></g></svg>