<!--?xml version="1.0" standalone="no"?-->
              <svg id="sw-js-blob-svg" viewBox="0 0 100 100" xmlns="http://www.w3.org/2000/svg" version="1.1">
                    <defs> 
                        <linearGradient id="sw-gradient" x1="0" x2="1" y1="1" y2="0">
                            <stop id="stop1" stop-color="rgba(44, 99, 180, 1)" offset="0%"></stop>
                            <stop id="stop2" stop-color="rgba(70, 144, 255, 1)" offset="100%"></stop>
                        </linearGradient>
                    </defs>
                <path fill="url(#sw-gradient)" d="M15.1,-18.2C22.4,-11.9,33,-9.8,35.8,-4.7C38.7,0.4,33.8,8.6,27.5,12.5C21.2,16.4,13.5,16.1,7,17.9C0.5,19.6,-4.7,23.4,-12.7,24.9C-20.7,26.3,-31.6,25.4,-36.3,19.7C-41,14.1,-39.5,3.7,-36.7,-5.5C-33.9,-14.6,-29.7,-22.5,-23.3,-28.9C-17,-35.4,-8.5,-40.5,-2.3,-37.8C3.9,-35.1,7.9,-24.6,15.1,-18.2Z" width="100%" height="100%" transform="translate(50 50)" stroke-width="0" style="transition: all 0.3s ease 0s;"></path>
              </svg>