<svg id="visual" viewBox="0 0 900 600" width="900" height="600" xmlns="http://www.w3.org/2000/svg" xmlns:xlink="http://www.w3.org/1999/xlink" version="1.1"><rect x="0" y="0" width="900" height="600" fill="#e9f2ff"></rect><path d="M0 326L129 326L129 361L257 361L257 331L386 331L386 261L514 261L514 347L643 347L643 338L771 338L771 367L900 367L900 306L900 601L900 601L771 601L771 601L643 601L643 601L514 601L514 601L386 601L386 601L257 601L257 601L129 601L129 601L0 601Z" fill="#4690ff"></path><path d="M0 376L129 376L129 397L257 397L257 440L386 440L386 387L514 387L514 346L643 346L643 462L771 462L771 463L900 463L900 366L900 601L900 601L771 601L771 601L643 601L643 601L514 601L514 601L386 601L386 601L257 601L257 601L129 601L129 601L0 601Z" fill="#3979d9"></path><path d="M0 497L129 497L129 539L257 539L257 456L386 456L386 482L514 482L514 513L643 513L643 546L771 546L771 513L900 513L900 470L900 601L900 601L771 601L771 601L643 601L643 601L514 601L514 601L386 601L386 601L257 601L257 601L129 601L129 601L0 601Z" fill="#2c63b4"></path></svg>