<svg id="visual" viewBox="0 0 900 600" width="900" height="600" xmlns="http://www.w3.org/2000/svg" xmlns:xlink="http://www.w3.org/1999/xlink" version="1.1"><rect x="0" y="0" width="900" height="600" fill="#ffffff"></rect><path d="M0 446L129 426L257 384L386 387L514 437L643 372L771 433L900 371L900 601L771 601L643 601L514 601L386 601L257 601L129 601L0 601Z" fill="#4690ff"></path><path d="M0 415L129 398L257 407L386 443L514 472L643 446L771 398L900 410L900 601L771 601L643 601L514 601L386 601L257 601L129 601L0 601Z" fill="#3f84ec"></path><path d="M0 475L129 460L257 495L386 440L514 453L643 489L771 459L900 511L900 601L771 601L643 601L514 601L386 601L257 601L129 601L0 601Z" fill="#3979d9"></path><path d="M0 532L129 528L257 490L386 500L514 529L643 514L771 503L900 493L900 601L771 601L643 601L514 601L386 601L257 601L129 601L0 601Z" fill="#326ec6"></path><path d="M0 564L129 553L257 566L386 572L514 564L643 542L771 546L900 541L900 601L771 601L643 601L514 601L386 601L257 601L129 601L0 601Z" fill="#2c63b4"></path></svg>